<svg xmlns="http://www.w3.org/2000/svg" width="680" viewBox="0 0 680 980">
<defs>
  <marker id="arrow" viewBox="0 0 10 10" refX="8" refY="5" markerWidth="6" markerHeight="6" orient="auto-start-reverse">
    <path d="M2 1L8 5L2 9" fill="none" stroke="#888780" stroke-width="1.5" stroke-linecap="round" stroke-linejoin="round"/>
  </marker>
  <marker id="arrow-dashed" viewBox="0 0 10 10" refX="8" refY="5" markerWidth="6" markerHeight="6" orient="auto-start-reverse">
    <path d="M2 1L8 5L2 9" fill="none" stroke="#B4B2A9" stroke-width="1.5" stroke-linecap="round" stroke-linejoin="round"/>
  </marker>
  <style>
    .box-gray   { fill:#F1EFE8; stroke:#5F5E5A; }
    .box-teal   { fill:#E1F5EE; stroke:#0F6E56; }
    .box-purple { fill:#EEEDFE; stroke:#534AB7; }
    .box-coral  { fill:#FAECE7; stroke:#993C1D; }
    .title      { font-size:14px; font-weight:600; }
    .title-gray   { fill:#444441; }
    .title-teal   { fill:#085041; }
    .title-purple { fill:#3C3489; }
    .title-coral  { fill:#712B13; }
    .sub        { font-size:12px; }
    .sub-gray   { fill:#5F5E5A; }
    .sub-teal   { fill:#0F6E56; }
    .sub-purple { fill:#534AB7; }
    .sub-coral  { fill:#993C1D; }
    .muted      { font-size:12px; fill:#888780; }
    .arr        { stroke:#888780; stroke-width:1.5; fill:none; }
    .arr-dashed { stroke:#B4B2A9; stroke-width:1; stroke-dasharray:4 3; fill:none; }
    .sep        { stroke:#D3D1C7; stroke-width:0.5; stroke-dasharray:2 4; }
  </style>
</defs>

<!-- LEFT BRANCH -->
<rect x="40" y="-50" width="260" height="60" rx="8" stroke-width="0.5" class="box-gray"/>
<text class="title title-gray" x="170" y="-25" text-anchor="middle" dominant-baseline="central">positions</text>
<text class="sub sub-gray" x="170" y="-5" text-anchor="middle" dominant-baseline="central">shape: (B, A, 3)</text>
<line x1="170" y1="10" x2="170" y2="38" class="arr" marker-end="url(#arrow)"/>

<rect x="40" y="40" width="260" height="60" rx="8" stroke-width="0.5" class="box-gray"/>
<text class="title title-gray" x="170" y="62" text-anchor="middle" dominant-baseline="central">(1) Pairwise distances rᵢⱼ</text>
<text class="sub sub-gray" x="170" y="82" text-anchor="middle" dominant-baseline="central">shape: (B, P) </text>
<line x1="300" y1="72" x2="328" y2="72" class="arr" marker-end="url(#arrow)"/>
<line x1="170" y1="100" x2="170" y2="188" class="arr" marker-end="url(#arrow)"/>

<rect x="40" y="188" width="260" height="72" rx="8" stroke-width="0.5" class="box-teal"/>
<text class="title title-teal" x="170" y="210" text-anchor="middle" dominant-baseline="central">(2) RBF layer ϕₖ(rᵢⱼ) </text>
<text class="sub sub-teal" x="170" y="230" text-anchor="middle" dominant-baseline="central">Gaussian basis + cosine cutoff</text>
<text class="sub sub-teal" x="170" y="248" text-anchor="middle" dominant-baseline="central">shape: (B, P, K) </text>
<line x1="300" y1="224" x2="326" y2="224" class="arr-dashed" marker-end="url(#arrow-dashed)"/>

<!-- RIGHT BRANCH -->
<rect x="328" y="30" width="270" height="84" rx="8" stroke-width="0.5" class="box-purple"/>
<text class="title title-purple" x="463" y="54" text-anchor="middle" dominant-baseline="central">(3) Atom embeddings (zero-init)</text>
<text class="sub sub-purple" x="463" y="74" text-anchor="middle" dominant-baseline="central">nn.Embed of initial configuration</text>
<text class="sub sub-purple" x="463" y="94" text-anchor="middle" dominant-baseline="central">shape: (B, A, F) </text>
<line x1="463" y1="114" x2="463" y2="156" class="arr" marker-end="url(#arrow)"/>
<line x1="463" y1="156" x2="463" y2="184" class="arr" marker-end="url(#arrow)"/>


<!-- Interaction block container -->
<rect x="310" y="156" width="330" height="348" rx="12" fill="none" stroke="#B4B2A9" stroke-width="1" stroke-dasharray="5 3"/>
<text class="muted" x="328" y="174" dominant-baseline="central">× n_interactions</text>

<!-- Block 1 -->
<rect x="328" y="188" width="270" height="70" rx="8" stroke-width="0.5" class="box-coral"/>
<text class="title title-coral" x="463" y="210" text-anchor="middle" dominant-baseline="central">(4) Filter network  Wᶠᵢⱼ = W(ϕₖ(rᵢⱼ))</text>
<text class="sub sub-coral" x="463" y="230" text-anchor="middle" dominant-baseline="central">Dense→SiLU→Dense</text>
<text class="sub sub-coral" x="463" y="248" text-anchor="middle" dominant-baseline="central">shape: (B, P, F)</text>
<line x1="463" y1="258" x2="463" y2="278" class="arr" marker-end="url(#arrow)"/>

<rect x="328" y="280" width="270" height="70" rx="8" stroke-width="0.5" class="box-coral"/>
<text class="title title-coral" x="463" y="302" text-anchor="middle" dominant-baseline="central">(5) Message passing + aggregate</text>
<text class="sub sub-coral" x="463" y="322" text-anchor="middle" dominant-baseline="central">msgsᶠᵢⱼ = hⱼ·Wᶠᵢⱼ → scatter-add</text>
<text class="sub sub-coral" x="463" y="340" text-anchor="middle" dominant-baseline="central">shape: (B, A, F)</text>
<line x1="463" y1="350" x2="463" y2="370" class="arr" marker-end="url(#arrow)"/>

<rect x="328" y="372" width="270" height="70" rx="8" stroke-width="0.5" class="box-coral"/>
<text class="title title-coral" x="463" y="394" text-anchor="middle" dominant-baseline="central">(6) Atom update (residual)</text>
<text class="sub sub-coral" x="463" y="414" text-anchor="middle" dominant-baseline="central">h ← h + MLP(msgsᶠᵢⱼ)</text>
<text class="sub sub-coral" x="463" y="432" text-anchor="middle" dominant-baseline="central">shape: (B, A, F)</text>
<line x1="330" y1="454" x2="638" y2="454" class="sep"/>

<!-- Residual connection block 1 -->
<line x1="463" y1="168" x2="620" y2="168" class="arr"/>
<line x1="620" y1="168" x2="620" y2="448" class="arr"/>
<line x1="620" y1="448" x2="463" y2="448" class="arr" marker-end="url(#arrow)"/>


<!-- Block 2 collapsed -->
<line x1="463" y1="442" x2="463" y2="470" class="arr" marker-end="url(#arrow)"/>
<text class="muted" x="463" y="482" text-anchor="middle" dominant-baseline="central">… repeat once more …   shape: (B, A, F)</text>
<line x1="463" y1="506" x2="463" y2="536" class="arr" marker-end="url(#arrow)"/>

<!-- Readout -->
<rect x="328" y="538" width="260" height="72" rx="8" stroke-width="0.5" class="box-purple"/>
<text class="title title-purple" x="463" y="560" text-anchor="middle" dominant-baseline="central">(7) Readout MLP</text>
<text class="sub sub-purple" x="463" y="580" text-anchor="middle" dominant-baseline="central">Dense(F/2)→SiLU→Dense(1)</text>
<text class="sub sub-purple" x="463" y="598" text-anchor="middle" dominant-baseline="central">shape: (B, A)</text>
<line x1="463" y1="610" x2="463" y2="638" class="arr" marker-end="url(#arrow)"/>


<!-- Sum -->
<rect x="328" y="640" width="260" height="60" rx="8" stroke-width="0.5" class="box-gray"/>
<text class="title title-gray" x="463" y="662" text-anchor="middle" dominant-baseline="central">Sum over atoms</text>
<text class="sub sub-gray" x="463" y="682" text-anchor="middle" dominant-baseline="central">shape: (B,)</text>

</svg>